<?xml version="1.0" standalone="no"?>
<!DOCTYPE svg PUBLIC "-//W3C//DTD SVG 20010904//EN"
 "http://www.w3.org/TR/2001/REC-SVG-20010904/DTD/svg10.dtd">
<svg version="1.0" xmlns="http://www.w3.org/2000/svg"
 width="300.000000pt" height="75.000000pt" viewBox="0 0 300.000000 75.000000"
 preserveAspectRatio="xMidYMid meet">
<g transform="translate(0.000000,75.000000) scale(0.100000,-0.100000)"
fill="#218846" stroke="none">
<path d="M100 698 c0 -29 -13 -71 -40 -128 -40 -86 -48 -124 -30 -135 6 -4 10
-87 10 -216 l0 -209 255 0 255 0 0 195 0 195 90 0 90 0 0 -195 0 -195 55 0 55
0 0 205 c0 127 4 205 10 205 5 0 17 11 25 24 15 22 13 29 -30 121 -29 63 -45
111 -45 136 l0 39 -350 0 -350 0 0 -42z m70 -13 c0 -18 -5 -25 -20 -25 -15 0
-20 7 -20 25 0 18 5 25 20 25 15 0 20 -7 20 -25z m80 0 c0 -20 -5 -25 -25 -25
-20 0 -25 5 -25 25 0 20 5 25 25 25 20 0 25 -5 25 -25z m70 -1 c0 -21 -4 -25
-22 -22 -15 2 -24 11 -26 26 -3 18 1 22 22 22 21 0 26 -5 26 -26z m80 1 c0
-20 -5 -25 -25 -25 -20 0 -25 5 -25 25 0 20 5 25 25 25 20 0 25 -5 25 -25z
m80 5 c0 -22 -22 -35 -44 -27 -9 4 -12 14 -9 26 7 29 53 29 53 1z m70 -5 c0
-20 -5 -25 -25 -25 -20 0 -25 5 -25 25 0 20 5 25 25 25 20 0 25 -5 25 -25z
m80 0 c0 -20 -5 -25 -25 -25 -20 0 -25 5 -25 25 0 20 5 25 25 25 20 0 25 -5
25 -25z m70 0 c0 -20 -5 -25 -25 -25 -20 0 -25 5 -25 25 0 20 5 25 25 25 20 0
25 -5 25 -25z m80 0 c0 -20 -5 -25 -25 -25 -20 0 -25 5 -25 25 0 20 5 25 25
25 20 0 25 -5 25 -25z m-610 -47 c0 -2 -13 -37 -29 -78 -27 -70 -32 -75 -61
-77 -17 -2 -30 1 -28 5 2 4 18 40 37 80 28 59 39 72 58 72 13 0 23 -1 23 -2z
m56 -76 c-20 -77 -20 -78 -53 -79 -18 -1 -33 0 -33 1 0 2 11 29 24 62 12 32
26 67 29 77 4 9 17 17 30 17 l23 0 -20 -78z m94 67 c0 -5 -5 -41 -11 -78 -11
-65 -12 -68 -40 -68 -16 0 -29 3 -29 6 0 3 7 39 17 79 15 64 19 72 40 72 13 0
23 -5 23 -11z m76 -35 c-3 -26 -6 -61 -6 -79 0 -29 -3 -32 -31 -32 l-31 0 7
46 c15 109 16 111 42 111 25 0 25 -2 19 -46z m84 -32 l0 -79 -31 0 -30 0 5 76
c2 42 5 77 5 79 1 1 12 2 26 2 25 0 25 -1 25 -78z m74 61 c5 -20 17 -112 17
-128 -1 -5 -14 -10 -31 -11 -29 -2 -30 -1 -30 46 0 26 -3 62 -6 79 -6 28 -4
31 19 31 16 0 28 -7 31 -17z m90 -46 c8 -35 18 -71 22 -80 5 -14 0 -16 -27
-14 -36 3 -37 5 -53 115 -6 39 -5 42 18 42 21 0 25 -8 40 -63z m85 -4 c12 -38
25 -74 28 -80 3 -9 -5 -12 -28 -10 -30 2 -33 6 -50 67 -24 84 -23 90 4 90 20
0 27 -10 46 -67z m85 -9 c20 -42 36 -78 36 -80 0 -2 -14 -3 -31 -1 -29 2 -33
7 -59 80 l-29 77 24 0 c19 0 29 -14 59 -76z m-709 -114 c-3 -5 -17 -10 -31
-10 -13 0 -24 5 -24 10 0 6 14 10 31 10 17 0 28 -4 24 -10z m95 0 c0 -5 -11
-10 -24 -10 -14 0 -28 5 -31 10 -4 6 7 10 24 10 17 0 31 -4 31 -10z m95 0 c-3
-5 -17 -10 -30 -10 -13 0 -27 5 -30 10 -4 6 8 10 30 10 22 0 34 -4 30 -10z
m90 0 c-3 -5 -17 -10 -31 -10 -13 0 -24 5 -24 10 0 6 14 10 31 10 17 0 28 -4
24 -10z m95 0 c0 -5 -11 -10 -24 -10 -14 0 -28 5 -31 10 -4 6 7 10 24 10 17 0
31 -4 31 -10z m95 0 c-3 -5 -17 -10 -30 -10 -13 0 -27 5 -30 10 -4 6 8 10 30
10 22 0 34 -4 30 -10z m90 0 c-3 -5 -17 -10 -31 -10 -13 0 -24 5 -24 10 0 6
14 10 31 10 17 0 28 -4 24 -10z m95 0 c0 -5 -11 -10 -24 -10 -14 0 -28 5 -31
10 -4 6 7 10 24 10 17 0 31 -4 31 -10z m90 0 c0 -5 -11 -10 -24 -10 -14 0 -28
5 -31 10 -4 6 7 10 24 10 17 0 31 -4 31 -10z m-735 -65 c-25 -24 -26 -29 -24
-135 4 -153 -1 -150 198 -151 198 0 191 -6 191 148 0 63 -5 123 -11 135 -9 16
-7 24 9 39 15 13 22 15 29 6 4 -7 7 -94 5 -194 l-3 -181 -25 -6 c-30 -8 -370
-7 -390 1 -11 4 -14 40 -14 176 0 162 1 172 22 194 18 19 23 21 30 9 6 -10 0
-23 -17 -41z m686 -144 c1 -162 -6 -209 -27 -188 -9 9 -17 332 -9 364 5 23 8
24 21 12 11 -12 14 -51 15 -188z m-351 14 l0 -125 -160 0 -160 0 0 124 0 124
160 1 160 0 0 -124z"/>
<path d="M1445 400 l0 -130 28 0 c26 0 27 2 27 53 0 63 16 90 51 85 22 -3 24
-7 27 -70 3 -68 3 -68 32 -68 l30 0 0 70 c0 62 -3 74 -25 95 -25 26 -63 32
-96 15 -17 -10 -19 -7 -19 35 0 42 -2 45 -27 45 l-28 0 0 -130z"/>
<path d="M1263 506 c-67 -31 -67 -96 1 -127 22 -10 48 -19 57 -19 25 0 41 -24
27 -38 -16 -16 -57 -15 -90 2 -26 14 -29 13 -39 -6 -14 -26 -3 -37 50 -49 52
-12 116 4 131 31 5 10 10 32 10 49 0 34 -14 44 -91 67 -52 16 -58 24 -34 44
14 12 48 10 87 -5 18 -7 36 31 21 46 -17 17 -97 20 -130 5z"/>
<path d="M1044 450 c-59 -24 -72 -104 -25 -151 24 -24 38 -29 76 -29 25 0 55
5 66 11 19 10 20 12 4 29 -14 15 -21 16 -46 7 -31 -12 -59 -3 -67 23 -4 10 10
12 67 8 l71 -5 0 29 c0 42 -48 88 -92 87 -18 0 -43 -4 -54 -9z m81 -50 c18
-20 17 -20 -28 -20 -49 0 -60 11 -29 29 25 15 37 13 57 -9z"/>
<path d="M1723 449 c-31 -16 -54 -70 -47 -108 9 -46 47 -71 104 -71 42 0 52 4
74 31 55 64 20 148 -64 155 -25 2 -55 -1 -67 -7z m85 -51 c22 -22 14 -67 -13
-80 -21 -9 -28 -8 -45 7 -36 32 -20 85 25 85 12 0 26 -5 33 -12z"/>
<path d="M1920 458 c0 -2 -1 -60 -3 -131 l-2 -127 28 0 c26 0 27 2 27 47 0 37
3 44 12 35 22 -22 86 -14 113 13 72 71 -17 202 -106 155 -13 -7 -19 -7 -19 0
0 8 -50 16 -50 8z m136 -73 c15 -23 15 -27 0 -50 -21 -32 -51 -32 -72 0 -14
21 -15 31 -6 50 16 34 56 33 78 0z"/>
<path d="M2284 450 c-63 -25 -72 -123 -15 -167 23 -18 102 -16 129 3 27 19 28
26 1 42 -18 11 -24 11 -40 -4 -16 -14 -24 -15 -44 -6 -27 13 -35 58 -13 80 15
15 50 16 65 1 8 -8 17 -7 34 1 l23 13 -28 23 c-28 25 -72 30 -112 14z"/>
<path d="M2481 446 c-56 -31 -67 -102 -22 -147 42 -42 110 -42 152 0 80 81
-28 203 -130 147z m92 -57 c14 -23 1 -67 -23 -74 -46 -15 -82 49 -48 83 17 17
58 11 71 -9z"/>
<path d="M2670 365 l0 -95 30 0 c29 0 29 1 32 61 3 65 19 88 52 76 12 -5 16
-20 16 -72 l0 -65 30 0 c29 0 29 1 32 61 3 65 19 88 52 76 12 -5 16 -20 16
-72 l0 -65 30 0 30 0 0 70 c0 62 -3 74 -25 95 -27 28 -70 33 -101 11 -17 -12
-22 -12 -39 0 -23 17 -67 18 -84 2 -11 -10 -14 -10 -18 0 -3 6 -16 12 -29 12
-24 0 -24 -1 -24 -95z"/>
<path d="M2157 329 c-39 -22 -4 -79 35 -58 10 5 18 18 18 29 0 25 -30 41 -53
29z"/>
</g>
</svg>
